<svg width="1920" height="99" fill="none" xmlns="http://www.w3.org/2000/svg"><path d="M1921-13H-1c-1.886 0-2.828 0-3.414.586C-5-11.828-5-10.886-5-9v95.466c0 2.113 0 3.17.677 3.767s1.725.465 3.822.202l496.327-62.366c.182-.029.366-.046.551-.05.138.002.275.023.549.065L739.515 65l537.605 25.975c.26.012.39.019.52.008.13-.01.26-.038.51-.093l290.69-62.724c.38-.083.57-.124.77-.128.19-.003.38.03.77.1l349.92 62.03c2.18.385 3.27.578 3.98-.021.72-.6.72-1.706.72-3.918V-9c0-1.886 0-2.828-.59-3.414-.58-.586-1.52-.586-3.41-.586z" fill="#F5F5F5"/><path d="M-12.5 98l514.211-65.963a2 2 0 0 1 .577.01L731.5 69.5l543.23 28.486c.18.01.36-.006.54-.046l294.83-65.85c.26-.06.54-.064.8-.014L1920.5 98" stroke="#ABABAB" stroke-width=".25" stroke-linejoin="round"/><path d="M-15 86l514.211-65.963a2 2 0 0 1 .577.01L729 57.5l543.23 28.486c.18.01.36-.006.54-.046l294.83-65.85c.26-.06.54-.064.8-.014L1918 86" stroke="#FCFDE8" stroke-width=".1" stroke-linejoin="round"/></svg>