<svg width="1920" height="150" fill="none" xmlns="http://www.w3.org/2000/svg"><g clip-path="url(#clip0_46_323)"><path d="M-12.5 104l514.211-65.963a2 2 0 0 1 .577.01L731.5 75.5l543.23 28.486c.18.009.36-.006.54-.046l294.83-65.85c.26-.06.54-.064.8-.014L1920.5 104" stroke="#263238" stroke-width=".5" stroke-linejoin="round"/><path d="M644.35 27.368L-2 104V0h1922v60.21L1395 104 644.35 27.368z" fill="#F5F5F5"/><path d="M-15 92l514.211-65.963a2 2 0 0 1 .577.01L729 63.5l543.23 28.486c.18.01.36-.006.54-.046l294.83-65.85c.26-.06.54-.064.8-.014L1918 92" stroke="#202020" stroke-width=".1" stroke-linejoin="round"/></g><defs><clipPath id="clip0_46_323"><path fill="#fff" d="M0 0h1920v150H0z"/></clipPath></defs></svg>